<svg xmlns="http://www.w3.org/2000/svg" viewBox="0 0 100 100"><defs><style>.cls-1{fill:none;}.cls-2{fill:#f90;}</style></defs><title>アセット 15</title><g id="レイヤー_2" data-name="レイヤー 2"><g id="obj"><path class="cls-1" d="M48.76,42.18a8,8,0,1,0,9.14,6.73A8,8,0,0,0,48.76,42.18Z"/><path class="cls-2" d="M66.79,3.91,56.53,26.71A24.49,24.49,0,0,1,74,46.46c.11.7.18,1.4.22,2.1a55.61,55.61,0,0,0,1.7-14.08C76,20.26,68.26,4,68.26,4Z"/><path class="cls-2" d="M85.49,80.39C81.72,76.11,77.64,72,73.14,67.28Q71.6,65.66,70,63.9a24.24,24.24,0,0,1-14.2,9.82C59.31,77.62,62.54,81,65.43,84c2.13,2.22,4.08,4.25,5.84,6.18,1.54,1.69,2.93,3.3,4.19,4.89.28.35.53.69.79,1H96.41a63.11,63.11,0,0,0-3.87-6.66A84.3,84.3,0,0,0,85.49,80.39Z"/><path class="cls-2" d="M39.3,79c1.57-1.66,3.21-3.42,4.92-5.31A24.26,24.26,0,0,1,38,71.25a4,4,0,0,1-.76-.35,38.74,38.74,0,0,1-8-6.09c-2.43,2.62-4.74,5-6.94,7.31s-4.18,4.36-6.15,6.52a86.83,86.83,0,0,0-9.43,12,59.87,59.87,0,0,0-3.07,5.41H23.75c1.1-1.44,2.28-2.89,3.6-4.38C30.61,88,34.61,84,39.3,79Z"/><path class="cls-2" d="M46.92,30.05A19.93,19.93,0,0,0,42,31.45L26.19,7l-1.43.34s-5.25,17.21-3,31.26C24.68,57,32.25,63.31,39.25,67.44v-.1a20.29,20.29,0,1,0,7.66-37.29Zm4.26,28a8,8,0,1,1,6.72-9.13A8,8,0,0,1,51.18,58Z"/><rect class="cls-1" width="100" height="100"/></g></g></svg>