<svg xmlns="http://www.w3.org/2000/svg" viewBox="0 0 100 100"><defs><style>.cls-1{fill:#f90;}.cls-2{fill:none;}</style></defs><title>アセット 17</title><g id="レイヤー_2" data-name="レイヤー 2"><g id="obj"><path class="cls-1" d="M86.6,54l6.9-25.95,1.79-6.72h0v0H31.91l-2.58-9.74A4.79,4.79,0,0,0,24.7,8h-20v5.37a4.79,4.79,0,0,0,4.78,4.8H20.56L33.74,67.69a4.78,4.78,0,0,0,4.63,3.56H87.72V61.12h0v0H42.5L41,55.43,40.62,54Z"/><path class="cls-1" d="M42.78,75.52A8.24,8.24,0,1,0,51,83.76,8.24,8.24,0,0,0,42.78,75.52Z"/><path class="cls-1" d="M79.49,75.52a8.24,8.24,0,1,0,8.23,8.24A8.24,8.24,0,0,0,79.49,75.52Z"/><rect class="cls-2" width="100" height="100"/></g></g></svg>